<?xml version="1.0" encoding="UTF-8" standalone="no"?>
<!DOCTYPE svg PUBLIC "-//W3C//DTD SVG 1.1//EN"
 "http://www.w3.org/Graphics/SVG/1.1/DTD/svg11.dtd">
<!-- Generated by graphviz version 15.1.0 (0)
 -->
<!-- Title: selecta Pages: 1 -->
<svg width="1031pt" height="429pt"
 viewBox="0.00 0.00 1031.00 429.00" xmlns="http://www.w3.org/2000/svg" xmlns:xlink="http://www.w3.org/1999/xlink">
<g id="graph0" class="graph" transform="scale(1 1) rotate(0) translate(4 425)">
<title>selecta</title>
<polygon fill="white" stroke="none" points="-4,4 -4,-425 1026.69,-425 1026.69,4 -4,4"/>
<!-- PL1 -->
<g id="node1" class="node">
<title>PL1</title>
<polygon fill="#000000" stroke="#000000" points="84.94,-421 0,-421 0,-385 84.94,-385 84.94,-421"/>
<text xml:space="preserve" text-anchor="middle" x="42.47" y="-397.95" font-family="Times,serif" font-size="14.00" fill="#ffffff">Allocation</text>
</g>
<!-- PL2 -->
<g id="node2" class="node">
<title>PL2</title>
<polygon fill="#000000" stroke="#000000" points="84.56,-101 0.38,-101 0.38,-65 84.56,-65 84.56,-101"/>
<text xml:space="preserve" text-anchor="middle" x="42.47" y="-77.95" font-family="Times,serif" font-size="14.00" fill="#ffffff">Follow&#45;up</text>
</g>
<!-- PL1&#45;&gt;PL2 -->
<!-- PL3 -->
<g id="node3" class="node">
<title>PL3</title>
<polygon fill="#000000" stroke="#000000" points="80.06,-36 4.88,-36 4.88,0 80.06,0 80.06,-36"/>
<text xml:space="preserve" text-anchor="middle" x="42.47" y="-12.95" font-family="Times,serif" font-size="14.00" fill="#ffffff">Analysis</text>
</g>
<!-- PL2&#45;&gt;PL3 -->
<!-- n1 -->
<g id="node4" class="node">
<title>n1</title>
<polygon fill="#ffffff" stroke="black" points="631.94,-421 511,-421 511,-385 631.94,-385 631.94,-421"/>
<text xml:space="preserve" text-anchor="middle" x="571.47" y="-397.95" font-family="Times,serif" font-size="14.00">800 Randomized</text>
</g>
<!-- n2 -->
<g id="node5" class="node">
<title>n2</title>
<polygon fill="#ffffff" stroke="black" points="637.19,-356 505.75,-356 505.75,-320 637.19,-320 637.19,-356"/>
<text xml:space="preserve" text-anchor="middle" x="571.47" y="-332.95" font-family="Times,serif" font-size="14.00">800 Primary factor</text>
</g>
<!-- n1&#45;&gt;n2 -->
<g id="edge34" class="edge">
<title>n1&#45;&gt;n2</title>
<path fill="none" stroke="black" d="M571.47,-384.55C571.47,-384.55 571.47,-367.79 571.47,-367.79"/>
<polygon fill="black" stroke="black" points="574.97,-367.79 571.47,-357.79 567.97,-367.79 574.97,-367.79"/>
</g>
<!-- P7 -->
<!-- n2&#45;&gt;P7 -->
<g id="edge20" class="edge">
<title>n2&#45;&gt;P7</title>
<path fill="none" stroke="black" d="M571.47,-319.77C571.47,-308.05 571.47,-294.43 571.47,-291.21"/>
</g>
<!-- n3 -->
<g id="node6" class="node">
<title>n3</title>
<polygon fill="#ffffff" stroke="black" points="414.19,-261 324.75,-261 324.75,-225 414.19,-225 414.19,-261"/>
<text xml:space="preserve" text-anchor="middle" x="369.47" y="-237.95" font-family="Times,serif" font-size="14.00">400 Arm A</text>
</g>
<!-- P10 -->
<!-- n3&#45;&gt;P10 -->
<g id="edge25" class="edge">
<title>n3&#45;&gt;P10</title>
<path fill="none" stroke="black" d="M369.47,-224.77C369.47,-213.05 369.47,-199.43 369.47,-196.21"/>
</g>
<!-- n4 -->
<g id="node7" class="node">
<title>n4</title>
<polygon fill="#ffffff" stroke="black" points="818.19,-261 728.75,-261 728.75,-225 818.19,-225 818.19,-261"/>
<text xml:space="preserve" text-anchor="middle" x="773.47" y="-237.95" font-family="Times,serif" font-size="14.00">400 Arm B</text>
</g>
<!-- P13 -->
<!-- n4&#45;&gt;P13 -->
<g id="edge30" class="edge">
<title>n4&#45;&gt;P13</title>
<path fill="none" stroke="black" d="M773.47,-224.77C773.47,-213.05 773.47,-199.43 773.47,-196.21"/>
</g>
<!-- n5 -->
<g id="node8" class="node">
<title>n5</title>
<polygon fill="#ffffff" stroke="black" points="314.81,-166 220.12,-166 220.12,-130 314.81,-130 314.81,-166"/>
<text xml:space="preserve" text-anchor="middle" x="267.47" y="-142.95" font-family="Times,serif" font-size="14.00">200 Adjunct</text>
</g>
<!-- P1 -->
<!-- n5&#45;&gt;P1 -->
<g id="edge3" class="edge">
<title>n5&#45;&gt;P1</title>
<path fill="none" stroke="black" d="M267.47,-129.55C267.47,-112.13 267.47,-88.05 267.47,-83.69"/>
</g>
<!-- n6 -->
<g id="node9" class="node">
<title>n6</title>
<polygon fill="#ffffff" stroke="black" points="456.44,-166 356.5,-166 356.5,-130 456.44,-130 456.44,-166"/>
<text xml:space="preserve" text-anchor="middle" x="406.47" y="-142.95" font-family="Times,serif" font-size="14.00">200 Standard</text>
</g>
<!-- P2 -->
<!-- n6&#45;&gt;P2 -->
<g id="edge5" class="edge">
<title>n6&#45;&gt;P2</title>
<path fill="none" stroke="black" d="M406.47,-129.55C406.47,-112.13 406.47,-88.05 406.47,-83.69"/>
</g>
<!-- n7 -->
<g id="node10" class="node">
<title>n7</title>
<polygon fill="#ffffff" stroke="black" points="783.81,-166 689.13,-166 689.13,-130 783.81,-130 783.81,-166"/>
<text xml:space="preserve" text-anchor="middle" x="736.47" y="-142.95" font-family="Times,serif" font-size="14.00">200 Adjunct</text>
</g>
<!-- P3 -->
<!-- n7&#45;&gt;P3 -->
<g id="edge10" class="edge">
<title>n7&#45;&gt;P3</title>
<path fill="none" stroke="black" d="M736.47,-129.55C736.47,-112.13 736.47,-88.05 736.47,-83.69"/>
</g>
<!-- n8 -->
<g id="node11" class="node">
<title>n8</title>
<polygon fill="#ffffff" stroke="black" points="925.44,-166 825.5,-166 825.5,-130 925.44,-130 925.44,-166"/>
<text xml:space="preserve" text-anchor="middle" x="875.47" y="-142.95" font-family="Times,serif" font-size="14.00">200 Standard</text>
</g>
<!-- P4 -->
<!-- n8&#45;&gt;P4 -->
<g id="edge12" class="edge">
<title>n8&#45;&gt;P4</title>
<path fill="none" stroke="black" d="M875.47,-129.55C875.47,-112.13 875.47,-88.05 875.47,-83.69"/>
</g>
<!-- n9 -->
<g id="node12" class="node">
<title>n9</title>
<polygon fill="#ffffff" stroke="black" points="230.69,-101 120.25,-101 120.25,-65 230.69,-65 230.69,-101"/>
<text xml:space="preserve" text-anchor="start" x="134.22" y="-77.95" font-family="Times,serif" font-size="14.00">6 No treatment</text>
</g>
<!-- n9&#45;&gt;P1 -->
<g id="edge7" class="edge">
<title>n9&#45;&gt;P1</title>
<path fill="none" stroke="black" d="M242.62,-83C242.62,-83 266.7,-83 266.7,-83"/>
<polygon fill="black" stroke="black" points="242.62,-79.5 232.62,-83 242.62,-86.5 242.62,-79.5"/>
</g>
<!-- n10 -->
<g id="node13" class="node">
<title>n10</title>
<polygon fill="#ffffff" stroke="black" points="553.69,-101 443.25,-101 443.25,-65 553.69,-65 553.69,-101"/>
<text xml:space="preserve" text-anchor="start" x="457.22" y="-77.95" font-family="Times,serif" font-size="14.00">9 No treatment</text>
</g>
<!-- n11 -->
<g id="node14" class="node">
<title>n11</title>
<polygon fill="#ffffff" stroke="black" points="699.69,-101 589.25,-101 589.25,-65 699.69,-65 699.69,-101"/>
<text xml:space="preserve" text-anchor="start" x="603.22" y="-77.95" font-family="Times,serif" font-size="14.00">7 No treatment</text>
</g>
<!-- n10&#45;&gt;n11 -->
<!-- n11&#45;&gt;P3 -->
<g id="edge14" class="edge">
<title>n11&#45;&gt;P3</title>
<path fill="none" stroke="black" d="M711.62,-83C711.62,-83 735.7,-83 735.7,-83"/>
<polygon fill="black" stroke="black" points="711.62,-79.5 701.62,-83 711.62,-86.5 711.62,-79.5"/>
</g>
<!-- n12 -->
<g id="node15" class="node">
<title>n12</title>
<polygon fill="#ffffff" stroke="black" points="1022.69,-101 912.25,-101 912.25,-65 1022.69,-65 1022.69,-101"/>
<text xml:space="preserve" text-anchor="start" x="926.22" y="-77.95" font-family="Times,serif" font-size="14.00">8 No treatment</text>
</g>
<!-- n13 -->
<g id="node16" class="node">
<title>n13</title>
<polygon fill="#ffffff" stroke="black" points="318.94,-36 216,-36 216,0 318.94,0 318.94,-36"/>
<text xml:space="preserve" text-anchor="middle" x="267.47" y="-12.95" font-family="Times,serif" font-size="14.00">194 Analyzed</text>
</g>
<!-- n14 -->
<g id="node17" class="node">
<title>n14</title>
<polygon fill="#ffffff" stroke="black" points="457.94,-36 355,-36 355,0 457.94,0 457.94,-36"/>
<text xml:space="preserve" text-anchor="middle" x="406.47" y="-12.95" font-family="Times,serif" font-size="14.00">191 Analyzed</text>
</g>
<!-- n15 -->
<g id="node18" class="node">
<title>n15</title>
<polygon fill="#ffffff" stroke="black" points="787.94,-36 685,-36 685,0 787.94,0 787.94,-36"/>
<text xml:space="preserve" text-anchor="middle" x="736.47" y="-12.95" font-family="Times,serif" font-size="14.00">193 Analyzed</text>
</g>
<!-- n16 -->
<g id="node19" class="node">
<title>n16</title>
<polygon fill="#ffffff" stroke="black" points="926.94,-36 824,-36 824,0 926.94,0 926.94,-36"/>
<text xml:space="preserve" text-anchor="middle" x="875.47" y="-12.95" font-family="Times,serif" font-size="14.00">192 Analyzed</text>
</g>
<!-- P1&#45;&gt;n13 -->
<g id="edge4" class="edge">
<title>P1&#45;&gt;n13</title>
<path fill="none" stroke="black" d="M267.47,-82.27C267.47,-82.27 267.47,-47.97 267.47,-47.97"/>
<polygon fill="black" stroke="black" points="270.97,-47.97 267.47,-37.97 263.97,-47.97 270.97,-47.97"/>
</g>
<!-- P1&#45;&gt;P2 -->
<!-- P2&#45;&gt;n10 -->
<g id="edge8" class="edge">
<title>P2&#45;&gt;n10</title>
<path fill="none" stroke="black" d="M407.06,-83C407.06,-83 431.41,-83 431.41,-83"/>
<polygon fill="black" stroke="black" points="431.41,-86.5 441.41,-83 431.41,-79.5 431.41,-86.5"/>
</g>
<!-- P2&#45;&gt;n14 -->
<g id="edge6" class="edge">
<title>P2&#45;&gt;n14</title>
<path fill="none" stroke="black" d="M406.47,-82.27C406.47,-82.27 406.47,-47.97 406.47,-47.97"/>
<polygon fill="black" stroke="black" points="409.97,-47.97 406.47,-37.97 402.97,-47.97 409.97,-47.97"/>
</g>
<!-- P3&#45;&gt;n15 -->
<g id="edge11" class="edge">
<title>P3&#45;&gt;n15</title>
<path fill="none" stroke="black" d="M736.47,-82.27C736.47,-82.27 736.47,-47.97 736.47,-47.97"/>
<polygon fill="black" stroke="black" points="739.97,-47.97 736.47,-37.97 732.97,-47.97 739.97,-47.97"/>
</g>
<!-- P3&#45;&gt;P4 -->
<!-- P4&#45;&gt;n12 -->
<g id="edge15" class="edge">
<title>P4&#45;&gt;n12</title>
<path fill="none" stroke="black" d="M876.06,-83C876.06,-83 900.41,-83 900.41,-83"/>
<polygon fill="black" stroke="black" points="900.41,-86.5 910.41,-83 900.41,-79.5 900.41,-86.5"/>
</g>
<!-- P4&#45;&gt;n16 -->
<g id="edge13" class="edge">
<title>P4&#45;&gt;n16</title>
<path fill="none" stroke="black" d="M875.47,-82.27C875.47,-82.27 875.47,-47.97 875.47,-47.97"/>
<polygon fill="black" stroke="black" points="878.97,-47.97 875.47,-37.97 871.97,-47.97 878.97,-47.97"/>
</g>
<!-- P5 -->
<!-- P5&#45;&gt;n3 -->
<g id="edge21" class="edge">
<title>P5&#45;&gt;n3</title>
<path fill="none" stroke="black" d="M369.47,-289.68C369.47,-289.68 369.47,-272.95 369.47,-272.95"/>
<polygon fill="black" stroke="black" points="372.97,-272.95 369.47,-262.95 365.97,-272.95 372.97,-272.95"/>
</g>
<!-- P5&#45;&gt;P7 -->
<g id="edge18" class="edge">
<title>P5&#45;&gt;P7</title>
<path fill="none" stroke="black" d="M370.05,-291C381.53,-291 559.79,-291 570.92,-291"/>
</g>
<!-- P6 -->
<!-- P6&#45;&gt;n4 -->
<g id="edge22" class="edge">
<title>P6&#45;&gt;n4</title>
<path fill="none" stroke="black" d="M773.47,-289.68C773.47,-289.68 773.47,-272.95 773.47,-272.95"/>
<polygon fill="black" stroke="black" points="776.97,-272.95 773.47,-262.95 769.97,-272.95 776.97,-272.95"/>
</g>
<!-- P7&#45;&gt;P6 -->
<g id="edge19" class="edge">
<title>P7&#45;&gt;P6</title>
<path fill="none" stroke="black" d="M572.05,-291C583.53,-291 761.79,-291 772.92,-291"/>
</g>
<!-- P8 -->
<!-- P8&#45;&gt;n5 -->
<g id="edge26" class="edge">
<title>P8&#45;&gt;n5</title>
<path fill="none" stroke="black" d="M267.47,-194.68C267.47,-194.68 267.47,-177.95 267.47,-177.95"/>
<polygon fill="black" stroke="black" points="270.97,-177.95 267.47,-167.95 263.97,-177.95 270.97,-177.95"/>
</g>
<!-- P8&#45;&gt;P10 -->
<g id="edge23" class="edge">
<title>P8&#45;&gt;P10</title>
<path fill="none" stroke="black" d="M268.12,-196C276.4,-196 360.97,-196 368.88,-196"/>
</g>
<!-- P9 -->
<!-- P9&#45;&gt;n6 -->
<g id="edge27" class="edge">
<title>P9&#45;&gt;n6</title>
<path fill="none" stroke="black" d="M406.47,-194.68C406.47,-194.68 406.47,-177.95 406.47,-177.95"/>
<polygon fill="black" stroke="black" points="409.97,-177.95 406.47,-167.95 402.97,-177.95 409.97,-177.95"/>
</g>
<!-- P11 -->
<!-- P9&#45;&gt;P11 -->
<!-- P10&#45;&gt;P9 -->
<g id="edge24" class="edge">
<title>P10&#45;&gt;P9</title>
<path fill="none" stroke="black" d="M369.88,-196C373.69,-196 402.51,-196 406.1,-196"/>
</g>
<!-- P11&#45;&gt;n7 -->
<g id="edge31" class="edge">
<title>P11&#45;&gt;n7</title>
<path fill="none" stroke="black" d="M736.47,-194.68C736.47,-194.68 736.47,-177.95 736.47,-177.95"/>
<polygon fill="black" stroke="black" points="739.97,-177.95 736.47,-167.95 732.97,-177.95 739.97,-177.95"/>
</g>
<!-- P11&#45;&gt;P13 -->
<g id="edge28" class="edge">
<title>P11&#45;&gt;P13</title>
<path fill="none" stroke="black" d="M736.88,-196C740.69,-196 769.51,-196 773.1,-196"/>
</g>
<!-- P12 -->
<!-- P12&#45;&gt;n8 -->
<g id="edge32" class="edge">
<title>P12&#45;&gt;n8</title>
<path fill="none" stroke="black" d="M875.47,-194.68C875.47,-194.68 875.47,-177.95 875.47,-177.95"/>
<polygon fill="black" stroke="black" points="878.97,-177.95 875.47,-167.95 871.97,-177.95 878.97,-177.95"/>
</g>
<!-- P13&#45;&gt;P12 -->
<g id="edge29" class="edge">
<title>P13&#45;&gt;P12</title>
<path fill="none" stroke="black" d="M774.12,-196C782.4,-196 866.97,-196 874.88,-196"/>
</g>
</g>
</svg>
